<?xml version="1.0" encoding="utf-8"?>
<!-- Generator: Adobe Illustrator 23.1.1, SVG Export Plug-In . SVG Version: 6.00 Build 0)  -->
<svg version="1.1" id="レイヤー_1" xmlns="http://www.w3.org/2000/svg" xmlns:xlink="http://www.w3.org/1999/xlink" x="0px"
	 y="0px" viewBox="0 0 357 206" style="enable-background:new 0 0 357 206;" xml:space="preserve">
<style type="text/css">
	.st0{fill:#333333;}
	.st1{fill:#EEEEEE;stroke:#333333;stroke-width:3;}
	.st2{fill:#FF8500;}
	.st3{fill:none;stroke:#333333;stroke-width:3;}
	.st4{fill:#FFFFFF;stroke:#333333;stroke-width:2;stroke-linejoin:bevel;}
	.st5{fill:#FF8D00;stroke:#333333;stroke-width:2;}
	.st6{fill:#FF8500;stroke:#333333;stroke-width:2;stroke-linejoin:bevel;}
	.st7{fill:#FFFFFF;stroke:#333333;}
	.st8{fill:#FF8500;stroke:#FFFFFF;stroke-width:2;}
	.st9{fill:none;}
</style>
<g>
	<path class="st0" d="M185.08,167.48l-50.14-39.73l-0.42-71.84l49.89-14.53l46.99,14.03l0.42,71.7L185.08,167.48z M143.22,123.71
		l41.63,32.99l38.64-33.37l-0.36-61.72l-38.75-11.57l-41.52,12.09L143.22,123.71z"/>
	<polygon class="st1" points="227.66,125.21 184.97,162.09 139.08,125.73 138.69,59.02 184.4,45.71 227.27,58.51 	"/>
	<polygon class="st2" points="227.56,125.32 184.63,160.83 184.63,47.27 227.56,58.98 	"/>
	<g>
		<polygon class="st3" points="227.66,125.21 184.97,162.09 139.08,125.73 138.69,59.02 184.4,45.71 227.27,58.51 		"/>
	</g>
	<path class="st0" d="M184.97,162.31l-0.11-0.09l-45.95-36.41v-0.08l-0.39-66.84l0.13-0.04l45.75-13.33l0.05,0.01l42.99,12.84v0.13
		l0.39,66.79l-0.06,0.05L184.97,162.31z M139.25,125.65l45.71,36.22l42.52-36.73l-0.39-66.5l-42.7-12.75l-45.53,13.26L139.25,125.65
		z"/>
</g>
<g>
	<path class="st0" d="M285.84,145.47h-38.13l-4.15-4.15v-0.82l4.15-4.15c-0.34,0-0.58,0.13-0.64,0.17c0,0,0.09-0.07,0.24-0.26
		c0.28-0.35,0.44-0.67,0.44-0.86V85.77l0,0c0,0-0.06-0.27-0.48-0.8c-0.2-0.26-0.32-0.34-0.32-0.34c0.07,0.05,0.35,0.19,0.75,0.19
		l-4.15-4.15v-0.82l4.15-4.15h21.16l4.15,4.15v0.82l-4.15,4.15c0,0-0.04,0.77-0.04,0.95v28.54l0.04-0.04h12.77l4.15,4.15v16.97
		c0,0.19,0.16,0.51,0.44,0.86c0.16,0.2,0.24,0.27,0.24,0.27c-0.06-0.04-0.3-0.17-0.64-0.17l4.15,4.15v0.82L285.84,145.47z
		 M255.88,137.16h21.79c-0.12-0.58-0.18-1.18-0.18-1.77v-12.81h-4.46v2.05c0,2.35-0.33,3.96-1.06,5.23
		c-1.09,1.87-2.98,2.94-5.19,2.94c-2.26,0-4.17-1.12-5.24-3.07c-0.69-1.26-1.01-2.88-1.01-5.1V85.77c0-0.6,0.06-1.19,0.18-1.77
		h-4.84c0.13,0.59,0.19,1.18,0.19,1.77v49.62C256.06,135.99,256,136.58,255.88,137.16z M268.93,125.98L268.93,125.98L268.93,125.98z
		"/>
	<path class="st4" d="M285.84,141.32h-38.13v-0.82c1.03,0,1.99-0.56,2.87-1.69c0.88-1.12,1.32-2.26,1.32-3.42V85.77
		c0-1.1-0.46-2.22-1.37-3.38c-0.91-1.15-1.85-1.73-2.83-1.73v-0.82h21.16v0.82c-1.03,0-1.99,0.56-2.87,1.69
		c-0.88,1.13-1.32,2.27-1.32,3.42v38.86c0,1.46,0.17,2.49,0.5,3.1s0.87,0.91,1.6,0.91s1.26-0.29,1.6-0.87
		c0.33-0.58,0.5-1.63,0.5-3.15v-6.2h12.77v16.97c0,1.16,0.44,2.3,1.32,3.42c0.88,1.13,1.84,1.69,2.87,1.69v0.82H285.84z"/>
</g>
<g>
	<path class="st0" d="M253.29,145.47h-21.16l-4.15-4.15v-0.82l4.15-4.15c-0.34,0-0.58,0.13-0.64,0.17c0,0,0.09-0.07,0.24-0.26
		c0.28-0.35,0.44-0.67,0.44-0.86V85.77l0,0c0,0-0.06-0.27-0.48-0.8c-0.2-0.26-0.32-0.34-0.32-0.34c0.07,0.05,0.35,0.19,0.75,0.19
		l-4.15-4.15v-0.82l4.15-4.15h21.16l4.15,4.15v0.82l-4.15,4.15c0,0-0.04,0.77-0.04,0.95v49.62c0,0.19,0,0.64,0.04,0.95l4.15,4.15
		v0.82L253.29,145.47z M240.3,137.16h4.82c-0.12-0.58-0.18-1.18-0.18-1.77V85.77c0-0.6,0.06-1.19,0.18-1.77h-4.84
		c0.13,0.59,0.19,1.18,0.19,1.77v49.62C240.48,135.99,240.42,136.58,240.3,137.16z"/>
	<path class="st4" d="M253.29,141.32h-21.16v-0.82c1.03,0,1.99-0.56,2.87-1.69c0.88-1.12,1.32-2.26,1.32-3.42V85.77
		c0-1.1-0.46-2.22-1.37-3.38c-0.91-1.15-1.85-1.73-2.83-1.73v-0.82h21.16v0.82c-1.03,0-1.99,0.56-2.87,1.69
		c-0.88,1.13-1.32,2.27-1.32,3.42v49.62c0,1.16,0.44,2.3,1.32,3.42c0.88,1.13,1.84,1.69,2.87,1.69L253.29,141.32L253.29,141.32z"/>
</g>
<g>
	<path class="st0" d="M218.65,147.21c-3.52,0-7.36-1.29-11.42-3.82l-0.19-0.12c-3.3-2.32-6.59-4.67-9.89-7.05l-1.72-3.37v-0.82
		l4.15-4.15c-0.34,0-0.58,0.13-0.64,0.17c0,0,0.09-0.07,0.24-0.26c0.28-0.35,0.44-0.67,0.44-0.86V85.77l0,0c0,0-0.06-0.27-0.47-0.8
		c-0.2-0.26-0.32-0.34-0.32-0.34c0.07,0.05,0.35,0.19,0.75,0.19l-4.15-4.15v-0.82l4.15-4.15h38.13l4.15,4.15v0.82l-4.15,4.15
		c0,0-0.04,0.77-0.04,0.95v41.14c0,0.19,0.01,0.7,0.04,0.95l4.15,4.15v0.82l-1.62,3.29c-3.55,2.74-6.97,5.15-10.18,7.16
		C225.89,145.92,222.15,147.21,218.65,147.21z M211.73,136.39c2.68,1.66,5.01,2.5,6.92,2.5c1.84,0,4.26-0.91,7-2.64
		c1.8-1.13,3.67-2.39,5.61-3.78c-1.26-1.74-1.89-3.62-1.89-5.56V85.77c0-0.6,0.06-1.19,0.18-1.77h-4.78
		c0.09,0.56,0.14,1.15,0.14,1.77v40.59c0,1.32-0.08,2.45-0.23,3.46c-0.34,2.17-2.12,4.71-6.02,4.71c-4.05,0-5.37-2.75-5.68-3.59
		c-0.4-1.07-0.57-2.45-0.57-4.58V85.77c0-0.61,0.06-1.21,0.17-1.77h-4.82c0.13,0.59,0.19,1.18,0.19,1.77v41.14
		c0,1.92-0.62,3.76-1.84,5.49C207.97,133.74,209.85,135.07,211.73,136.39z"/>
	<path class="st4" d="M237.71,132.83c-3.47,2.68-6.75,4.99-9.85,6.93c-3.47,2.19-6.54,3.28-9.21,3.28c-2.74,0-5.81-1.06-9.21-3.19
		c-3.28-2.31-6.57-4.65-9.85-7.02v-0.82c1.03,0,1.99-0.56,2.87-1.69c0.88-1.12,1.32-2.26,1.32-3.42V85.77c0-1.1-0.46-2.22-1.37-3.38
		c-0.91-1.15-1.85-1.73-2.83-1.73v-0.82h38.13v0.82c-1.03,0-1.99,0.56-2.87,1.69c-0.88,1.13-1.32,2.27-1.32,3.42v41.14
		c0,1.16,0.44,2.3,1.32,3.42c0.88,1.13,1.84,1.69,2.87,1.69L237.71,132.83L237.71,132.83z M220.74,126.36V85.77
		c0-1.03-0.18-1.82-0.55-2.37c-0.12-0.18-0.64-0.73-1.55-1.64c-0.73,0.73-1.22,1.28-1.46,1.64c-0.43,0.67-0.64,1.46-0.64,2.37v40.59
		c0,1.52,0.1,2.57,0.32,3.15c0.21,0.58,0.8,0.87,1.78,0.87c1.15,0,1.79-0.39,1.92-1.19C220.68,128.4,220.74,127.45,220.74,126.36z"
		/>
</g>
<g>
	<path class="st0" d="M296.63,151.23c-3.17,0-7.07-0.72-11.93-2.2c-5.55-1.69-6.91-1.84-7.13-1.85l-4.12-4.14v-0.82l4.14-4.17
		c0.08-0.32,0.04-0.78,0.04-0.97l-0.2-66.75c0,0-0.04-0.87-0.05-0.87l0,0l-4.17-4.14V64.5l4.14-4.17c0.17-0.04,1.45-0.37,7.19-1.93
		c5.26-1.45,8.8-2.31,11.87-2.32c0.01,0,0.03,0,0.04,0c3.53,0,7.28,1.58,11.47,4.83l0.17,0.14c3.34,2.88,6.72,5.76,10.12,8.64
		l1.47,3.16v0.82l-4.14,4.17c0,0-0.04,0.77-0.04,0.96l0.15,49.61c0,0.19,0.01,0.73,0.05,0.96c0,0,0,0-0.01,0l4.17,4.14v0.82
		l-1.3,3.03c-3.6,3.41-7.08,6.41-10.33,8.91c-4.21,3.32-8,4.95-11.54,4.96C296.67,151.23,296.65,151.23,296.63,151.23z
		 M285.25,140.52c0.58,0.17,1.2,0.36,1.88,0.56c4.02,1.23,7.25,1.82,9.55,1.84c0.9,0,2.92-0.42,6.46-3.21
		c2.06-1.58,4.2-3.37,6.41-5.34c-1.45-1.85-2.19-3.85-2.2-5.95l-0.15-49.61c-0.01-2.04,0.69-4,2.06-5.83
		c-2.18-1.86-4.35-3.72-6.51-5.58c-3.41-2.62-5.4-3.02-6.3-3.02h-0.01c-1.5,0-4.35,0.34-9.38,1.94c-0.73,0.23-1.4,0.44-2.02,0.62
		c0.47,1.1,0.7,2.22,0.7,3.36l0.2,66.75C285.94,138.24,285.71,139.4,285.25,140.52z M296.62,137.73c-4.02,0-5.34-2.74-5.65-3.58
		c-0.4-1.06-0.58-2.48-0.59-4.58l-0.16-51.8c0-1.88,0.19-3.29,0.6-4.44c0.83-2.34,2.94-3.75,5.63-3.75c0.01,0,0.02,0,0.04,0
		c4.23,0,5.48,2.87,5.76,3.76c0.32,1.01,0.47,2.37,0.48,4.4l0.16,51.8c0.01,1.39-0.07,2.55-0.23,3.54
		c-0.34,2.14-2.11,4.64-6.01,4.65C296.64,137.73,296.63,137.73,296.62,137.73z"/>
	<path class="st4" d="M315.71,134.34c-3.52,3.33-6.85,6.21-10.01,8.63c-3.46,2.73-6.46,4.09-9.02,4.1
		c-2.74,0.01-6.33-0.67-10.77-2.02c-4.44-1.36-7.21-2.03-8.31-2.03v-0.82c1.03,0,1.99-0.57,2.87-1.7c0.88-1.13,1.32-2.27,1.31-3.43
		l-0.2-66.75c0-1.1-0.45-2.21-1.33-3.33c-0.88-1.12-1.84-1.69-2.88-1.68v-0.82c1.16,0,3.97-0.71,8.43-2.12
		c4.47-1.41,8.01-2.12,10.62-2.13c2.55-0.01,5.54,1.31,8.95,3.96c3.35,2.89,6.74,5.78,10.15,8.67v0.82c-1.03,0-1.99,0.57-2.87,1.7
		s-1.32,2.27-1.31,3.43l0.15,49.61c0,1.16,0.45,2.3,1.33,3.42c0.88,1.13,1.84,1.69,2.88,1.68L315.71,134.34z M298.73,129.55
		l-0.15-51.8c0-1.52-0.1-2.57-0.28-3.15s-0.79-0.86-1.83-0.86c-0.91,0-1.49,0.34-1.73,1.01c-0.24,0.67-0.36,1.68-0.35,3.01
		l0.15,51.8c0,1.52,0.11,2.57,0.33,3.15c0.21,0.58,0.81,0.87,1.78,0.86c1.15,0,1.79-0.39,1.91-1.15
		C298.67,131.66,298.73,130.7,298.73,129.55z"/>
</g>
<rect x="181.94" y="113.03" class="st0" width="1.69" height="15.23"/>
<g>
	<rect x="144.49" y="101.81" class="st0" width="33.73" height="21.21"/>
	<path class="st2" d="M172.68,117.48h-22.65v-10.13h22.65V117.48z"/>
</g>
<g>
	<path class="st0" d="M155.39,145.47h-39.33l-3.1-3.1v-0.85l3.1-3.1c-0.01-0.01,0.21-0.16,0.52-0.55c0.48-0.61,0.71-1.14,0.71-1.63
		v-51.2c0-0.4-0.26-0.95-0.75-1.58c-0.41-0.52-0.64-0.62-0.65-0.63c0.02,0.01,0.08,0.03,0.16,0.03l-3.1-3.1v-0.85l3.1-3.1h39.35
		l3.1,3.1v0.85l-3.1,3.1c0.01,0.01-0.21,0.16-0.52,0.55c-0.47,0.6-0.71,1.15-0.71,1.63v51.2c0,0.49,0.23,1.02,0.7,1.62
		c0.32,0.41,0.53,0.55,0.59,0.57l3.03,3.09v0.85L155.39,145.47z M140.44,139.28h8.13c-0.4-0.98-0.6-1.99-0.6-3.02v-51.2
		c0-1.03,0.2-2.04,0.6-3.02h-8.1c0.34,0.89,0.52,1.9,0.52,3.01v7.53l-5.78,1.54l-4.33-7.53l-0.41-1.54c0-1.1,0.18-2.11,0.54-3.01
		h-8.17c0.43,1,0.64,2.01,0.64,3.02v51.2c0,1.03-0.2,2.04-0.6,3.02h8.1c-0.34-0.88-0.51-1.9-0.51-3.03v-25.13l5.78-1.54l4.33,7.53
		l0.41,1.54v17.6C140.99,137.35,140.8,138.37,140.44,139.28z"/>
	<path class="st2" d="M155.46,142.36h-39.34v-0.85c1.06,0,2.05-0.58,2.96-1.74c0.91-1.16,1.36-2.33,1.36-3.53v-51.2
		c0-1.14-0.47-2.29-1.41-3.49c-0.94-1.19-1.91-1.79-2.92-1.79v-0.85h39.34v0.85c-1.06,0-2.05,0.58-2.96,1.74
		c-0.91,1.17-1.36,2.34-1.36,3.53v51.2c0,1.2,0.45,2.37,1.36,3.53c0.91,1.17,1.9,1.74,2.96,1.74v0.85H155.46z M137.95,92.57v-7.53
		c0-1.2-0.28-2.14-0.85-2.83c-0.19-0.25-0.63-0.69-1.32-1.32c-0.63,0.57-1.03,0.97-1.23,1.23c-0.63,0.75-0.94,1.72-0.94,2.92
		L137.95,92.57z M137.95,136.24v-17.6l-4.33-7.53v25.13c0,1,0.19,1.83,0.57,2.45c0.19,0.31,0.72,0.88,1.6,1.69
		c0.57-0.51,0.97-0.91,1.23-1.23C137.64,138.41,137.95,137.43,137.95,136.24z"/>
	<path class="st0" d="M156.4,143.41H115v-2.91h1.03c0.74,0,1.44-0.44,2.16-1.34c0.77-0.98,1.15-1.93,1.15-2.89V85.05
		c0-0.89-0.4-1.85-1.19-2.85c-0.73-0.93-1.44-1.39-2.1-1.39h-1.03V77.9h41.41v2.91h-1.03c-0.74,0-1.44,0.44-2.16,1.34
		c-0.77,0.98-1.15,1.93-1.15,2.89v51.2c0,0.96,0.37,1.91,1.15,2.89c0.71,0.91,1.41,1.34,2.16,1.34h1.03v2.94H156.4z M136.19,141.35
		h16.25c-0.29-0.27-0.58-0.57-0.85-0.92c-1.05-1.34-1.59-2.74-1.59-4.17V85.05c0-1.42,0.54-2.83,1.59-4.17
		c0.27-0.35,0.56-0.65,0.85-0.92h-16.25l0.2,0.18c0.99,0.9,1.3,1.27,1.44,1.45c0.69,0.85,1.05,2.01,1.05,3.45v11.39l-6.4-11.12
		v-0.28c0-1.43,0.39-2.64,1.18-3.58c0.21-0.27,0.65-0.72,1.32-1.33l0.2-0.18h-16.34c0.3,0.28,0.6,0.6,0.89,0.96
		c1.08,1.37,1.63,2.77,1.63,4.13v51.2c0,1.42-0.54,2.83-1.58,4.17c-0.27,0.35-0.56,0.66-0.85,0.92h16.24l-0.21-0.19
		c-1.26-1.17-1.62-1.64-1.79-1.92c-0.47-0.78-0.71-1.79-0.71-2.98v-29l6.4,11.12v17.87c0,1.43-0.39,2.64-1.18,3.58
		c-0.27,0.34-0.71,0.78-1.33,1.33L136.19,141.35z M134.56,114.99v21.27c0,0.82,0.14,1.45,0.41,1.92c0.03,0.04,0.17,0.25,0.72,0.8
		c0.18-0.18,0.31-0.32,0.41-0.44c0.48-0.59,0.71-1.32,0.71-2.28v-17.32L134.56,114.99z M134.57,84.79l2.26,3.93v-3.66
		c0-0.94-0.21-1.67-0.62-2.17c-0.06-0.08-0.19-0.24-0.52-0.56c-0.25,0.25-0.36,0.38-0.4,0.43
		C134.84,83.31,134.61,83.97,134.57,84.79z"/>
</g>
<g>
	<path class="st0" d="M101.86,147.24c-3.52,0-7.35-1.29-11.42-3.82l-0.23-0.15c-3.27-2.36-6.54-4.69-9.81-7l-1.76-3.4v-0.82
		l4.15-4.15c0.06-0.31,0.04-0.77,0.04-0.95V85.8c0-0.19-0.16-0.51-0.44-0.86c-0.16-0.2-0.24-0.27-0.25-0.27
		c0.06,0.04,0.3,0.17,0.64,0.17l-4.15-4.15v-0.82l4.15-4.15h38.13l4.15,4.15l-4.15,4.97c0.34,0-0.04,0.76-0.04,0.95v41.14l0,0
		c0,0,0.45,0.95,0.05,0.95l4.15,4.15v0.82c0,0-8.59,8.44-11.8,10.45C109.11,145.96,105.37,147.24,101.86,147.24z M94.96,136.44
		c2.67,1.65,4.99,2.49,6.9,2.49c1.84,0,4.26-0.91,6.99-2.64c1.82-1.14,3.71-2.42,5.66-3.82c-1.29-1.78-1.94-3.63-1.94-5.53V85.8
		c0-0.6,0.06-1.19,0.18-1.77h-4.78c0.09,0.55,0.14,1.14,0.14,1.77v20.25l-4.15,4.15h-4.2l-4.15-4.15V85.8
		c0-0.62,0.05-1.22,0.15-1.77h-4.79c0.12,0.58,0.18,1.18,0.18,1.77v41.14c0,1.91-0.61,3.74-1.82,5.46
		C91.2,133.74,93.08,135.09,94.96,136.44z M101.86,134.47c-4.26,0-5.5-2.88-5.78-3.76c-0.33-1.04-0.47-2.4-0.47-4.41v-7.57
		l4.15-4.15h4.2l4.15,4.15v7.57c0,1.87-0.2,3.29-0.62,4.44C106.65,133.07,104.54,134.47,101.86,134.47z"/>
	<path class="st5" d="M82.79,79.87h38.13v0.82c-1.03,0-1.99,0.56-2.87,1.69c-0.88,1.12-1.32,2.26-1.32,3.42v41.14
		c0,1.09,0.46,2.22,1.37,3.37s1.86,1.73,2.83,1.73v0.82c-3.47,2.68-6.75,4.99-9.85,6.93c-3.47,2.19-6.54,3.28-9.21,3.28
		c-2.74,0-5.81-1.06-9.21-3.19c-3.28-2.37-6.57-4.71-9.85-7.02v-0.82c1.03,0,1.99-0.56,2.87-1.69c0.88-1.13,1.32-2.27,1.32-3.42
		V85.8c0-1.16-0.44-2.3-1.32-3.42c-0.88-1.13-1.84-1.69-2.87-1.69v-0.82H82.79z M99.76,85.8v20.25h4.2V85.8
		c0-1.03-0.18-1.82-0.55-2.37c-0.12-0.18-0.64-0.73-1.55-1.64c-0.73,0.73-1.26,1.35-1.6,1.87C99.93,84.17,99.76,84.89,99.76,85.8z
		 M99.76,126.3c0,1.52,0.09,2.57,0.27,3.15c0.18,0.58,0.79,0.87,1.83,0.87c0.91,0,1.49-0.34,1.73-1c0.24-0.67,0.37-1.67,0.37-3.01
		v-7.57h-4.2V126.3z"/>
</g>
<path class="st0" d="M74.85,147.12H53.69l-4.15-4.15v-0.83l4.15-4.15c0.06-0.35,0.04-0.79,0.04-0.99V69.92l0,0
	c0,0-0.04-0.68-0.04-0.99l-4.15-4.15v-0.83l4.15-4.15c-0.09,0,1.48-0.36,9.62-2.68c3.64-1.04,6.72-1.54,9.44-1.54
	c3.19,0,7.09,0.86,12.02,2.31c5.19,1.52,6.88,1.9,7.1,1.92l4.1,4.15v0.83l-4.15,4.15c0,0.44-0.04,0.79-0.04,0.98v19.64l-4.15,4.15
	H85.4v18.61l-4.15,4.15h-0.82l-4.15-4.15c-0.49-0.14-0.97-0.16-0.97-0.16h-0.48v24.83c0,0.21-0.04,0.69,0.04,1l4.15,4.15v0.83
	L74.85,147.12z M61.85,138.81h4.84c-0.13-0.6-0.19-1.21-0.19-1.82V108l4.15-4.15h4.65c0.6,0,1.19,0.06,1.77,0.19v-4.85
	c-0.59,0.14-1.18,0.21-1.77,0.21h-4.65l-4.15-4.15V76.53c0-1.54,0.18-2.87,0.55-4.07c0.77-2.54,2.96-4.13,5.7-4.13
	c2.26,0,4.17,1.12,5.24,3.08C78.68,72.67,79,74.3,79,76.52v8.88h4.46V69.92c0-1.2,0.24-2.38,0.72-3.52c-0.6-0.18-1.24-0.38-1.93-0.6
	c-4.01-1.27-7.21-1.92-9.51-1.92c-1.91,0-4.32,0.41-7.16,1.22c-1.69,0.48-3.13,0.89-4.35,1.23c0.53,1.17,0.8,2.37,0.8,3.59V137
	C62.04,137.61,61.98,138.22,61.85,138.81z M74.99,74.89C74.99,74.89,74.99,74.9,74.99,74.89C74.99,74.9,74.99,74.89,74.99,74.89z"/>
<path class="st6" d="M91.82,64.78c-1.03,0-1.99,0.57-2.87,1.7c-0.88,1.13-1.32,2.28-1.32,3.44v19.64H74.85V76.52
	c0-1.47-0.17-2.51-0.5-3.12s-0.87-0.92-1.6-0.92c-0.91,0-1.49,0.4-1.73,1.19c-0.24,0.8-0.37,1.74-0.37,2.85v18.72h4.65
	c1.03,0,2.14-0.47,3.33-1.42s1.78-1.91,1.78-2.89h0.82v21.38h-0.82c0-1.04-0.58-2.02-1.73-2.94c-1.16-0.92-2.28-1.38-3.38-1.38
	h-4.65v28.99c0,1.17,0.44,2.32,1.32,3.45c0.88,1.14,1.84,1.7,2.87,1.7v0.83H53.69v-0.83c1.03,0,1.99-0.57,2.87-1.7
	c0.88-1.13,1.32-2.28,1.32-3.45V69.92c0-1.1-0.46-2.23-1.37-3.4c-0.91-1.16-1.85-1.75-2.83-1.75v-0.83c0.55,0,4.13-0.95,10.76-2.85
	c3.22-0.92,5.99-1.38,8.3-1.38c2.74,0,6.32,0.7,10.76,2.11s7.21,2.11,8.3,2.11v0.85H91.82z"/>
<g>
	<path class="st0" d="M184.71,167.85c-3.18,0-7.1-0.73-11.99-2.24c-5.54-1.71-6.98-1.84-7.13-1.87l-4.11-4.15v-0.82l4.15-4.15
		c0-0.28,0.04-0.77,0.04-0.96V86.98l0,0c0,0-0.04-0.8-0.04-0.96l-4.15-4.15v-0.82l2.9-3.96c3.51-1.11,6.98-2.11,10.33-2.98
		c3.61-0.93,6.97-1.41,9.98-1.41c3.16,0,6.61,0.51,10.27,1.52c3.26,0.9,6.61,1.86,9.97,2.85l2.98,3.98v0.82l-4.15,4.15
		c0.34,0,0.59-0.13,0.65-0.17c0,0-0.09,0.07-0.24,0.27c-0.28,0.36-0.44,0.68-0.44,0.88v21.69l-4.15,4.15l-12.81-0.04v2.55h17.01
		l4.15,4.15v3.59l-4.15,4.15c0,0.38-0.04,0.82-0.04,0.88v25.51c0,0.19,0,0.77,0.04,0.97l4.15,4.15v0.82l-4.15,4.15
		c0.09,0-1.49,0.35-9.65,2.62C190.5,167.36,187.42,167.85,184.71,167.85z M173.3,157.1c0.58,0.17,1.2,0.36,1.87,0.57
		c4.02,1.24,7.23,1.87,9.54,1.87c1.92,0,4.34-0.4,7.19-1.19c1.65-0.46,3.05-0.84,4.26-1.17c-0.49-1.14-0.73-2.32-0.73-3.53v-25.52
		c0-1.53,0.42-3.02,1.24-4.47h-6.81c0.73,1.37,1.11,2.87,1.11,4.44v18.91c0,2.32-0.3,3.9-0.98,5.12c-1.05,1.87-2.97,2.95-5.27,2.95
		c-3.35,0-5.17-2.06-5.75-3.99c-0.34-1.09-0.5-2.43-0.5-4.07V123.1l1.79-1.79l-1.79-1.8V93.56c0-1.53,0.18-2.85,0.55-4.05
		c0.78-2.54,2.96-4.13,5.7-4.13c2.26,0,4.17,1.12,5.24,3.07c0.7,1.28,1.02,2.9,1.02,5.12v10.97h4.46V86.99
		c0-1.3,0.28-2.57,0.85-3.79c-1.18-0.33-2.34-0.66-3.5-0.98c-2.94-0.81-5.65-1.22-8.07-1.22c-2.31,0-4.97,0.39-7.9,1.14
		c-1.23,0.32-2.47,0.65-3.73,1.01c0.61,1.25,0.91,2.53,0.91,3.82v66.67C174,154.83,173.76,155.99,173.3,157.1z M186.91,148.66
		L186.91,148.66L186.91,148.66z M182.18,127.13L182.18,127.13L182.18,127.13z M186.95,91.93C186.95,91.94,186.95,91.94,186.95,91.93
		C186.95,91.94,186.95,91.94,186.95,91.93z"/>
	<path class="st7" d="M203.78,159.59c-0.55,0-4.14,0.92-10.76,2.77c-3.22,0.89-5.99,1.34-8.3,1.34c-2.74,0-6.32-0.68-10.76-2.05
		c-4.44-1.37-7.21-2.05-8.3-2.05v-0.82c1.03,0,1.99-0.56,2.87-1.69c0.88-1.13,1.32-2.27,1.32-3.42V86.98c0-1.09-0.46-2.22-1.37-3.38
		c-0.91-1.16-1.85-1.74-2.83-1.74v-0.82c3.47-1.09,6.84-2.07,10.12-2.92s6.26-1.28,8.94-1.28c2.8,0,5.85,0.46,9.17,1.37
		c3.31,0.91,6.61,1.86,9.9,2.83v0.82c-1.03,0-1.99,0.57-2.87,1.69c-0.88,1.13-1.32,2.27-1.32,3.43v21.69h-12.77V93.56
		c0-1.46-0.17-2.5-0.5-3.12c-0.34-0.61-0.87-0.92-1.6-0.92c-0.91,0-1.49,0.4-1.73,1.19c-0.24,0.79-0.37,1.74-0.37,2.83v25.95h21.16
		v3.59c-1.03,0-1.99,0.56-2.87,1.69c-0.88,1.13-1.32,2.24-1.32,3.34v25.52c0,1.16,0.44,2.3,1.32,3.43c0.88,1.13,1.84,1.69,2.87,1.69
		V159.59z M186.81,147.01V128.1c0-1.27-0.43-2.42-1.28-3.45s-1.82-1.55-2.92-1.55v23.91c0,1.21,0.11,2.17,0.32,2.86
		c0.21,0.7,0.81,1.05,1.78,1.05c0.79,0,1.34-0.27,1.64-0.82C186.66,149.56,186.81,148.53,186.81,147.01z"/>
</g>
<path class="st8" d="M141.32,61.62"/>
<line class="st9" x1="92" y1="69" x2="92" y2="69"/>
<path class="st2" d="M144.49,141.33"/>
</svg>
